<svg xmlns="http://www.w3.org/2000/svg" viewBox="0 0 64 64" fill="none">
  <!-- Background circle -->
  <circle cx="32" cy="32" r="32" fill="#0d6efd"/>

  <!-- Fingerprint arcs (thumb scan lines) -->
  <g stroke="#ffffff" stroke-linecap="round" fill="none">
    <!-- Outer arc -->
    <path stroke-width="2.2" d="M19 38 C17 26 24 16 32 16 C40 16 47 26 45 38"/>
    <!-- Mid arc -->
    <path stroke-width="2" d="M22 39 C21 29 26 21 32 21 C38 21 43 29 42 39"/>
    <!-- Inner arc -->
    <path stroke-width="1.8" d="M25 40 C24.5 32 27.5 26 32 26 C36.5 26 39.5 32 39 40"/>
    <!-- Core arc -->
    <path stroke-width="1.6" d="M28 41 C28 35 29.5 31 32 31 C34.5 31 36 35 36 41"/>
    <!-- Center dot line -->
    <path stroke-width="1.4" d="M31 41 C31 38 31.5 36 32 36 C32.5 36 33 38 33 41"/>
  </g>

  <!-- "TL" text -->
  <text x="32" y="56" font-family="'Arial Black', Arial, sans-serif"
        font-weight="900" font-size="11" fill="#ffffff"
        text-anchor="middle" letter-spacing="1">TL</text>
</svg>
